<svg xmlns="http://www.w3.org/2000/svg" width="88" height="84" viewBox="0 0 88 84"><g><g><path fill="#fbe900" d="M67.065 43.806a2.416 2.416 0 0 1-3.413 0L27.169 7.323a2.416 2.416 0 0 1 0-3.413 2.406 2.406 0 0 1 1.707-.705c.618 0 1.236.235 1.706.705l36.483 36.483c.94.94.94 2.472 0 3.413zm19.077 12.677c.703 0 1.272-.57 1.272-1.272v-11.09c0-16.077-13.08-29.158-29.159-29.158H45.233L32.38 2.112A4.925 4.925 0 0 0 28.876.66a4.925 4.925 0 0 0-3.505 1.452 4.925 4.925 0 0 0-1.452 3.505c0 .857.217 1.68.623 2.409a234.805 234.805 0 0 0-15.815 14.45A27.815 27.815 0 0 0 .614 40.93c-.308 6.923 1.938 13.665 6.325 18.983a1.27 1.27 0 0 0 1.79.171 1.272 1.272 0 0 0 .172-1.79 25.291 25.291 0 0 1-5.746-17.25 25.277 25.277 0 0 1 7.373-16.771 232.232 232.232 0 0 1 15.674-14.32l34.82 34.82a232.121 232.121 0 0 1-14.318 15.673 25.263 25.263 0 0 1-17.001 7.383c-6.387.227-12.565-1.927-17.392-6.066a1.272 1.272 0 0 0-1.656 1.931 27.783 27.783 0 0 0 19.138 6.677A27.8 27.8 0 0 0 48.5 62.247a234.776 234.776 0 0 0 14.45-15.816 4.961 4.961 0 0 0 4.821-.003V74.07a4.33 4.33 0 0 0 1.278 3.086 4.331 4.331 0 0 0 3.089 1.281 4.37 4.37 0 0 0 4.365-4.367V63.935c0-.337.13-.653.372-.893a1.263 1.263 0 0 1 2.153.893v15.213c0 1.118.435 2.17 1.229 2.967a4.172 4.172 0 0 0 2.963 1.226 4.198 4.198 0 0 0 4.194-4.193v-18.85a1.272 1.272 0 1 0-2.544 0v18.85a1.651 1.651 0 0 1-2.814 1.168 1.644 1.644 0 0 1-.484-1.168V63.935a3.81 3.81 0 0 0-3.806-3.806c-1.019 0-1.975.397-2.69 1.114a3.774 3.774 0 0 0-1.117 2.692v10.134a1.824 1.824 0 0 1-1.821 1.823c-.487 0-.944-.189-1.29-.536a1.805 1.805 0 0 1-.533-1.287V42.11l-.002-.014a4.941 4.941 0 0 0-1.45-3.501L47.777 17.507h10.48c14.675 0 26.614 11.94 26.614 26.615v11.09c0 .702.57 1.271 1.272 1.271z"/></g></g></svg>