<svg xmlns="http://www.w3.org/2000/svg" width="105" height="105" viewBox="0 0 105 105"><g><g><path fill="none" stroke="#000" stroke-miterlimit="20" d="M94.245 52.123C94.245 28.856 75.39 10 52.123 10 28.856 10 10 28.856 10 52.123c0 23.266 18.856 42.122 42.123 42.122.247 0 .493 0 .74-.016V61.452v0h-9.05v0-10.547 0h9.05v0-7.766c0-9 5.496-13.904 13.525-13.904 3.85 0 7.158.28 8.112.411v9.412h-5.528c-4.36 0-5.216 2.073-5.216 5.117v6.714h10.448v0L72.84 61.436v0h-9.083v31.18c17.606-5.051 30.49-21.258 30.49-40.493z"/></g></g></svg>