<svg xmlns="http://www.w3.org/2000/svg" width="108" height="107" viewBox="0 0 108 107"><g><g><path fill="none" stroke="#000" stroke-miterlimit="20" stroke-width="1.04" d="M75.934 69.926l-.006.006v-.014l-2.143 2.129a11.28 11.28 0 0 1-10.646 3.046 37.482 37.482 0 0 1-10.886-4.879 50.295 50.295 0 0 1-8.587-6.923 50.681 50.681 0 0 1-6.416-7.784 39.477 39.477 0 0 1-4.823-9.758 11.28 11.28 0 0 1 2.82-11.52l2.51-2.51a1.79 1.79 0 0 1 2.533-.005l.006.005 7.924 7.925a1.79 1.79 0 0 1 .006 2.532l-.006.006-4.653 4.653a3.793 3.793 0 0 0-.395 4.935 54.42 54.42 0 0 0 5.57 6.5 54.087 54.087 0 0 0 7.332 6.163 3.821 3.821 0 0 0 4.879-.423l4.498-4.569a1.79 1.79 0 0 1 2.533-.005l.005.005 7.939 7.953a1.79 1.79 0 0 1 .006 2.532zm8.144-46.54c-16.522-16.518-43.306-16.514-59.824.009-16.517 16.522-16.513 43.306.01 59.824 16.522 16.517 43.306 16.513 59.823-.01a42.302 42.302 0 0 0-.009-59.824z"/></g></g></svg>