<svg xmlns="http://www.w3.org/2000/svg" width="27" height="36" viewBox="0 0 27 36"><g><g><path fill="#fbe900" d="M26.508 7.383L19.624.493A1.686 1.686 0 0 0 18.43 0H18v9h9v-.429c0-.443-.176-.872-.492-1.188zm-5.383 17.04l-6.78 6.73a1.199 1.199 0 0 1-1.69 0l-6.779-6.73c-.714-.707-.213-1.923.791-1.923h4.583v-5.625c0-.622.503-1.125 1.125-1.125h2.25c.622 0 1.125.503 1.125 1.125V22.5h4.583c1.004 0 1.505 1.216.792 1.924zM15.75 9.564V0H1.687C.752 0 0 .752 0 1.688v32.624C0 35.248.752 36 1.688 36h23.625c.935 0 1.687-.752 1.687-1.688V11.25h-9.563c-.928 0-1.687-.76-1.687-1.688z"/></g></g></svg>