<svg id="email" xmlns="http://www.w3.org/2000/svg" width="84.245" height="84.245" viewBox="0 0 84.245 84.245">
  <path id="Path_9" data-name="Path 9" d="M167.615,144h-33.99l16.995,14.567Zm0,0" transform="translate(-108.497 -116.921)" fill="#6dcff6"/>
  <path id="Path_10" data-name="Path 10" d="M139.557,169.677a1.5,1.5,0,0,1-.979-.363L120,153.391v28.322h39.114V153.391l-18.578,15.924A1.5,1.5,0,0,1,139.557,169.677Zm0,0" transform="translate(-97.434 -124.546)" fill="#6dcff6"/>
  <path id="Path_11" data-name="Path 11" d="M42.123,0A42.123,42.123,0,1,0,84.245,42.123,42.123,42.123,0,0,0,42.123,0ZM64.688,58.671a1.5,1.5,0,0,1-1.5,1.5H21.061a1.5,1.5,0,0,1-1.5-1.5v-33.1a1.5,1.5,0,0,1,1.5-1.5H63.184a1.5,1.5,0,0,1,1.5,1.5Zm0,0" fill="#6dcff6"/>
</svg>
