<svg xmlns="http://www.w3.org/2000/svg" width="90" height="90" viewBox="0 0 90 90"><g><g><path fill="#2e3972" d="M9.418 86.05a5.467 5.467 0 0 1-4.72-8.24l17.655-29.998c.168-.287.257-.613.257-.946v-22.39h5.598v22.39c0 .36.103.711.298 1.013l19.368 29.934a5.336 5.336 0 0 1-4.478 8.236zM51.01 75.786l-19.07-29.48V22.608c0-1.03-.836-1.865-1.867-1.865h-9.329c-1.03 0-1.866.835-1.866 1.865v23.75L1.49 75.917A9.199 9.199 0 0 0 9.418 89.78h33.978a9.072 9.072 0 0 0 7.614-13.994z"/></g><g><path fill="#2e3972" d="M27.097 54.466l-3.216-1.89-15.844 26.93a1.866 1.866 0 0 0 1.61 2.811H22.61v-3.731h-9.703z"/></g><g><path fill="#2e3972" d="M85.824 48.185l-4.825 4.825c-.35.35-.547.825-.547 1.32v26.122a5.598 5.598 0 0 1-5.597 5.597H58.062a5.598 5.598 0 0 1-5.598-5.597V50.598a3.732 3.732 0 0 1 3.732-3.732h29.081a.773.773 0 0 1 .547 1.319zm-29.628-5.05a7.464 7.464 0 0 0-7.464 7.463v29.854a9.34 9.34 0 0 0 9.33 9.329h16.792a9.34 9.34 0 0 0 9.33-9.33v-25.35l4.28-4.278a4.506 4.506 0 0 0-3.187-7.689z"/></g><g><path fill="#2e3972" d="M72.989 54.33v24.256H67.39v3.731h7.464c1.03 0 1.865-.835 1.865-1.865V54.329z"/></g><g><path fill="#2e3972" d="M52.464 27.244V2.084c0-1.03-.835-1.865-1.866-1.865H37.537c-1.03 0-1.866.835-1.866 1.866v25.69a31.673 31.673 0 0 0-6.53 2.849l1.865 3.23a27.963 27.963 0 0 1 6.998-2.861 1.866 1.866 0 0 0 1.399-1.808V3.951h9.33v24.8c0 .895.636 1.664 1.516 1.831a28.014 28.014 0 0 1 16.593 9.989l2.91-2.337a31.767 31.767 0 0 0-17.288-10.99z"/></g><g><path fill="#2e3972" d="M79.52 35.67a2.799 2.799 0 1 1-.001-5.597 2.799 2.799 0 0 1 0 5.598zm0-9.329a6.53 6.53 0 1 0 0 13.061 6.53 6.53 0 0 0 0-13.06z"/></g><g><path fill="#2e3972" d="M72.989 20.744a1.866 1.866 0 1 1 0-3.732 1.866 1.866 0 0 1 0 3.732zm0-7.464a5.598 5.598 0 1 0 0 11.195 5.598 5.598 0 0 0 0-11.195z"/></g><g><path fill="#2e3972" d="M6.75 24.475a2.799 2.799 0 1 1 0-5.597 2.799 2.799 0 0 1 0 5.597zm0-9.33a6.53 6.53 0 1 0 0 13.062 6.53 6.53 0 0 0 0-13.061z"/></g><g><path fill="#2e3972" d="M15.146 9.548a1.866 1.866 0 1 1 0-3.732 1.866 1.866 0 0 1 0 3.732zm0-7.463a5.598 5.598 0 1 0 0 11.195 5.598 5.598 0 0 0 0-11.195z"/></g><g><path fill="#2e3972" d="M56.196 58.061v-3.732h5.597v3.732z"/></g><g><path fill="#2e3972" d="M56.196 65.525v-3.732h3.731v3.732z"/></g><g><path fill="#2e3972" d="M56.196 72.988v-3.732h5.597v3.732z"/></g><g><path fill="#2e3972" d="M56.196 80.452V76.72h3.731v3.732z"/></g><g><path fill="#2e3972" d="M3.951 37.536v-3.731h3.732v3.731z"/></g><g><path fill="#2e3972" d="M9.549 46.866v-3.732h3.732v3.732z"/></g><g><path fill="#2e3972" d="M41.269 54.33v-3.732H45v3.731z"/></g><g><path fill="#2e3972" d="M35.671 39.402v-3.731h3.732v3.731z"/></g><g><path fill="#2e3972" d="M37.537 80.452V76.72h3.732v3.732z"/></g><g><path fill="#2e3972" d="M31.94 72.988v-3.732h3.731v3.732z"/></g></g></svg>