<svg xmlns="http://www.w3.org/2000/svg" width="90" height="90" viewBox="0 0 90 90"><g><g><path fill="#2e3972" d="M84.533 50.5H56.018c.397-1.683.404-3.54 0-5.248h25.935c1.44 0 2.58 1.166 2.58 2.58zM71.492 67.782l3.318 3.317-3.71 3.71-3.318-3.318a2.624 2.624 0 0 0-3.417-.253A32.546 32.546 0 0 1 49.86 77.25a2.624 2.624 0 0 0-2.236 2.595v4.688h-5.248v-4.688c0-1.3-.951-2.403-2.236-2.595a32.544 32.544 0 0 1-14.505-6.012 2.624 2.624 0 0 0-3.417.254l-3.317 3.318-3.711-3.71 3.318-3.318a2.624 2.624 0 0 0 .254-3.416 32.291 32.291 0 0 1-4.562-8.618h5.63A27.388 27.388 0 0 0 45 72.362a27.388 27.388 0 0 0 25.17-16.614h5.63a32.29 32.29 0 0 1-4.562 8.618 2.624 2.624 0 0 0 .254 3.416zM5.467 47.832a2.583 2.583 0 0 1 2.58-2.58h25.935a11.561 11.561 0 0 0 0 5.248H5.467zm31.394 7.915c4.43 4.602 11.843 4.605 16.278 0h11.19A22.138 22.138 0 0 1 45 67.114a22.138 22.138 0 0 1-19.329-11.367zm14.212-7.871A6.066 6.066 0 0 1 45 53.949a6.067 6.067 0 0 1-6.051-6.595c.256-3.044 2.799-5.552 6.051-5.552 3.415 0 6.073 2.769 6.073 6.074zM23.722 17.167l1.184 8.936a2.624 2.624 0 1 0 5.203-.69l-1.52-11.46a33.882 33.882 0 0 1 8.54-3.26v12.223c0 3.978 3.236 7.215 7.215 7.215h1.312c3.979 0 7.216-3.237 7.216-7.215V10.692a33.865 33.865 0 0 1 8.538 3.262l-1.519 11.46a2.625 2.625 0 0 0 5.203.69l1.184-8.937a34.267 34.267 0 0 1 12.835 22.837H53.14c-4.472-4.645-11.888-4.563-16.282 0H10.888a34.266 34.266 0 0 1 12.834-22.837zm18.654-9.98c0-.949.772-1.72 1.72-1.72h1.807c.95 0 1.72.772 1.72 1.72v15.728a1.97 1.97 0 0 1-1.968 1.968h-1.31a1.97 1.97 0 0 1-1.969-1.968V7.187zm45.111 35.108a7.805 7.805 0 0 0-3.058-1.89c-1.165-12.4-8.086-23.536-18.82-30.086l-.028-.017-.017-.01A39.152 39.152 0 0 0 52.6 5.27c-.835-2.912-3.52-5.05-6.698-5.05h-1.806c-3.177 0-5.863 2.138-6.698 5.05a39.155 39.155 0 0 0-12.957 5.02l-.03.017-.02.013C13.656 16.87 6.734 28.006 5.57 40.408 2.465 41.447.219 44.38.219 47.832v5.292a2.624 2.624 0 0 0 2.624 2.623h5.849a37.358 37.358 0 0 0 4.555 9.875l-3.623 3.621a2.625 2.625 0 0 0 0 3.711l7.422 7.422a2.625 2.625 0 0 0 3.71 0l3.624-3.624a37.868 37.868 0 0 0 12.748 5.284v5.121a2.624 2.624 0 0 0 2.624 2.624h10.496a2.624 2.624 0 0 0 2.624-2.624v-5.12a37.869 37.869 0 0 0 12.748-5.285l3.623 3.624a2.624 2.624 0 0 0 3.712 0l7.422-7.422a2.625 2.625 0 0 0 0-3.71l-3.624-3.623a37.355 37.355 0 0 0 4.556-9.874h5.848a2.624 2.624 0 0 0 2.624-2.624v-5.291a7.786 7.786 0 0 0-2.294-5.537z"/></g></g></svg>