<svg xmlns="http://www.w3.org/2000/svg" width="168" height="154" viewBox="0 0 168 154"><g><g><path fill="#2e3972" d="M47.374 57.253h9.294v37.192h-9.294zm29.58 0l10.06-24.821c3.386.418 6.016 3.313 6.016 6.81v18.011h16.564c5.47 0 9.92 4.45 9.92 9.92v23.39c0 5.47-4.45 9.92-9.92 9.92H85.948l-19.453-4.945V57.253zm7.764 53.058h24.876c10.89 0 19.748-8.859 19.748-19.748V67.174c0-10.889-8.859-19.748-19.748-19.748h-6.737v-8.184c0-9.202-7.487-16.689-16.69-16.689h-5.753l-10.08 24.874H37.546v56.846h23.42z"/></g><g><path fill="#2e3972" d="M72.348 124.608H9.967V10.716h148.066v113.892H95.85L83.924 138.73zM84.1 153.752l16.316-19.317h67.445V.889H.14v133.546h67.308z"/></g></g></svg>