<svg id="Layer_1" enable-background="new 0 0 511.998 511.998" height="512" viewBox="0 0 511.998 511.998" width="512" xmlns="http://www.w3.org/2000/svg"><g><path d="m258.192 356.709h75.938c33.241 0 60.284-27.043 60.284-60.283v-71.4c0-33.241-27.043-60.284-60.284-60.284h-20.566v-24.983c0-28.093-22.854-50.947-50.947-50.947h-17.564l-30.774 75.931h-100.087v173.534h71.493zm-23.701-161.968 30.709-75.772c10.336 1.276 18.364 10.113 18.364 20.789v54.983h50.566c16.699 0 30.284 13.585 30.284 30.284v71.4c0 16.698-13.585 30.283-30.284 30.283h-72.184l-59.385-15.097v-116.87zm-90.299 0h28.37v113.534h-28.37z"/><path d="m256.303 489.32 49.806-58.969h205.89v-407.673h-511.999v407.674h205.472zm-35.872-88.968h-190.431v-347.674h451.998v347.674h-189.82l-36.412 43.111z"/></g></svg>